<svg id="Color" xmlns="http://www.w3.org/2000/svg" viewBox="0 0 1000 1000"><defs><style>.cls-1,.cls-8{fill:#f8991d;}.cls-1{stroke:#c67a29;stroke-width:5.32px;}.cls-2,.cls-9{fill:#fff;}.cls-3,.cls-5,.cls-6{fill:none;}.cls-4{fill:#9e90ba;}.cls-5{stroke:#fff;stroke-width:2px;}.cls-6{stroke:#5f4f7e;stroke-width:2.25px;}.cls-7{fill:#5f4f7e;}.cls-9{fill-rule:evenodd;}</style></defs><title>logo</title><path class="cls-1" d="M428.37,15.5c39.4,14.78,103.87,14.78,143.26,0S664,16.79,689.45,51.21s79.63,70.41,120.51,80S887,183.85,890.37,227s30.13,103.69,59.51,134.56,37.24,87.33,17.47,125.49-29,104-20.39,146.41-14.39,94.26-51,115.32-78.83,71.36-93.82,111.78-61.46,71.26-103.29,68.54-103.69,16-137.45,41.67-89,25.64-122.79,0S343,926.38,301.16,929.1,212.84,901,197.86,860.56,140.66,769.84,104,748.78s-59.57-73-51-115.32-.61-108.25-20.38-146.41S20.74,392.42,50.12,361.56,106.28,270.14,109.63,227s39.53-86.26,80.41-95.82,95.11-45.54,120.52-80S389,.72,428.37,15.5Z"/><ellipse class="cls-2" cx="499.33" cy="493.85" rx="403.33" ry="416.45"/><ellipse class="cls-3" cx="502.57" cy="493.85" rx="410.8" ry="424.15"/><ellipse class="cls-4" cx="499.33" cy="493.86" rx="286.43" ry="295.74"/><ellipse class="cls-5" cx="499.33" cy="493.85" rx="419.57" ry="433.21"/><path class="cls-6" d="M769.1,493.85c0,153.84-120.79,278.54-269.77,278.54S229.56,647.69,229.56,493.85,350.34,215.32,499.33,215.32,769.1,340,769.1,493.85Z"/><path class="cls-7" d="M178.88,385.31l1.07-2.73c7.61.49,12.68-2.2,14.84-7.73,1.81-4.61.33-9.3-3.47-10.88-10.09-4.21-18.53,18.39-31.95,12.8-6.5-2.71-8.74-10.48-5.49-18.8,2.11-5.39,5.51-8.85,5.92-9.9a2.24,2.24,0,0,0-.15-1.86l.58-1.46,11.5,3.24-1.1,2.8c-6.09-.75-11.43,2.23-13.54,7.62-1.53,3.92-.64,7.7,2,8.8,6.23,2.6,11.92-8.53,22.58-13.2a12.59,12.59,0,0,1,10.5-.26c7.05,2.93,10,11.83,6.78,20.15-2.19,5.6-6.36,9.8-6.85,11.06a1.74,1.74,0,0,0,.51,1.92l-.71,1.82Z"/><path class="cls-7" d="M219.45,302.37a58.32,58.32,0,0,1,9.4,10.59,15.29,15.29,0,0,0-2.62,3.57c-1.74,3.06-2.45,7-5.23,11.88-7.58,13.34-22.4,18.27-33.81,11.36-11.6-7-14.42-23.52-6.51-37.44,3.84-6.77,8.94-9.63,9.68-10.93a1.89,1.89,0,0,0,.11-1.68l.92-1.63,11.37,6.09-1.45,2.54c-7.42-1.7-13.57.79-17.12,7-5.29,9.31-2.14,19.87,7.81,25.9,10.15,6.15,22,3.73,27.32-5.58,3.4-6,2.87-13-1.35-19.1Z"/><path class="cls-7" d="M253.84,275.46c2.52-3,2.28-5.43-.72-8.08l-9.89-8.72L227.57,277.6l10,8.81c2.94,2.6,5.16,2.47,7.82-.74l.71-.86,2.17,1.91-15.23,18.42-2.17-1.91.81-1c2.42-2.92,2.23-5.37-.55-7.82L209,274.93c-2.77-2.45-5.09-2.31-7.61.73l-.76.92-2.17-1.91,15.24-18.42,2.16,1.91-.66.8c-2.47,3-2.76,5.31.35,8.06l8.73,7.69L240,255.77l-8.55-7.54c-3.11-2.74-5.27-2.46-8,.87l-.43.51-2.17-1.91L236,229.34l2.16,1.91-.85,1c-2.42,2.92-2.5,5.23.5,7.87l22,19.4c2.89,2.55,5.07,2.59,7.82-.74l.76-.92,2.17,1.91-15.18,18.36-2.17-1.91Z"/><path class="cls-7" d="M265.43,201.56c11.85-9.94,26.28-9.31,34.89,1.63,8.21,10.42,7.77,26.25-5.78,37.63-13.05,10.94-27.42,8.71-35.16-1.13C250.25,228.1,252.78,212.18,265.43,201.56Zm28.43,35.64c7.88-6.61,6-16.73-.33-24.81-7.41-9.42-18.86-14.4-27.48-7.17-7.2,6.05-7.39,15.73-.43,24.57C274.42,241,285.86,243.91,293.86,237.2Z"/><path class="cls-7" d="M320.47,163.43c13.37-7.63,27.47-4.37,34.07,8,6.28,11.76,3.14,27.25-12.15,36-14.71,8.39-28.48,3.56-34.41-7.53C301,186.77,306.21,171.56,320.47,163.43Zm21.87,40.27c8.89-5.07,8.81-15.36,3.94-24.48-5.69-10.63-16.1-17.62-25.82-12.08-8.13,4.63-10,14.13-4.64,24.1C322.56,203.86,333.32,208.84,342.34,203.7Z"/><path class="cls-7" d="M407.49,177.61l-36.91,13.52-.95-2.77,1.17-.43c4.41-1.61,5.16-3.73,4-7.21L365,152.28c-1.45-4.2-4.11-4.26-7.2-3.13l-1.31.48-1-2.77,23.35-8.55.95,2.77-2,.73c-3.58,1.31-4.53,3.5-3.38,6.84L384.51,178c.9,2.63,1.88,3,4.56,2l8.75-3.21c4.61-1.69,5.18-4.54,7.7-12.34l2.75-1Z"/><path class="cls-7" d="M448.93,165.55c3.81-.69,5.11-2.69,4.43-6.7l-2.24-13.23-23.75,4.28,2.26,13.38c.67,3.94,2.45,5.3,6.49,4.58l1.08-.2.49,2.9-23.11,4.16-.49-2.89,1.22-.23c3.67-.66,5-2.66,4.41-6.38l-5-29.58c-.63-3.71-2.5-5.14-6.31-4.45l-1.16.21-.49-2.9,23.11-4.17.49,2.9-1,.18c-3.74.68-5.4,2.28-4.7,6.44l2,11.67,23.75-4.28-1.93-11.45c-.71-4.16-2.54-5.36-6.72-4.61l-.65.12-.49-2.9,23-4.15.49,2.9-1.3.23c-3.67.66-5.16,2.38-4.48,6.4l5,29.43c.65,3.86,2.31,5.33,6.48,4.57l1.15-.2.49,2.89-23,4.16-.49-2.9Z"/><path class="cls-7" d="M504.91,116.27c15.27.26,25.93,10.32,25.71,24.43-.21,13.43-10.41,25.25-27.87,25-16.81-.28-26.42-11.53-26.22-24.21C476.76,126.52,488.62,116,504.91,116.27Zm-.43,46.17c10.15.17,15-8.8,15.21-19.21.19-12.14-5.48-23.56-16.58-23.74-9.28-.16-15.46,7.13-15.64,18.52C487.24,152.42,494.18,162.27,504.48,162.44Z"/><path class="cls-7" d="M578.41,126.28,597,130l-.53,2.89-.51-.1c-5.74-1.14-7.08,1.29-7.74,4.84l-3.44,18.45c-3.07,16.52-15.28,17.33-23.82,15.63-12.91-2.56-20-10-17.9-21.3l4.11-22.08c.68-3.7-.07-5.23-4.09-6l-1.22-.25.54-2.88,22.46,4.45-.54,2.89-1.22-.24c-3-.6-5.36.4-6,4L553,152.34c-1.68,9,4.19,13.44,10.72,14.73,9.4,1.87,15.09-2.69,16.61-10.84l3.34-18c1-5.26,0-7.92-4.46-8.8l-1.29-.26Z"/><path class="cls-7" d="M597.15,165.08l2.68,1c-.14,7.88,2.68,13,8.12,15,4.54,1.66,9-.06,10.38-4,3.63-10.59-18.59-18.32-13.76-32.4,2.34-6.83,9.76-9.48,18-6.48,5.3,1.94,8.8,5.3,9.83,5.68a2,2,0,0,0,1.79-.23l1.44.53-2.64,12-2.76-1c.46-6.31-2.65-11.69-8-13.63-3.85-1.42-7.47-.34-8.43,2.43-2.24,6.54,8.77,11.94,13.75,22.72a13.79,13.79,0,0,1,.71,10.83c-2.54,7.39-11,10.85-19.21,7.86-5.51-2-9.76-6.14-11-6.59a1.61,1.61,0,0,0-1.83.61l-1.79-.66Z"/><path class="cls-7" d="M677.39,169.16l-14.22-7.59-7.55,15.08,10.52,5.61c3.57,1.91,5.5,1.33,7.28-2.23l2.6,1.39-6.68,13.34-2.59-1.39c1.81-3.62,1.57-5.27-3.43-7.94l-9.54-5.1-6,12.07c-1.44,2.88-1.23,3.76.66,4.76L659.23,203c4.22,2.25,6.84,2.12,10.89-2.85l2.47,1.32-6.05,10.1-39.07-20.86,1.31-2.61,2.66,1.42c3.76,2,5.83,1.16,7.48-2.12l13.38-26.74c1.81-3.62,1.29-5.52-3.19-7.91l-.65-.34,1.31-2.62,35.76,19.09-4.22,10.07-2.46-1.32C680.48,172.68,680.37,170.75,677.39,169.16Z"/><path class="cls-7" d="M711,234.15c-2.18,2.85-2.49,5.09,1.63,8.46l.86.7-1.77,2.3-19.54-16,1.77-2.3,1.43,1.17c3.44,2.81,5.58,2,7.62-.71l6.3-8.22.65-27c.06-3.61-.22-4.71-3.09-7.05l-.4-.32,1.77-2.31,18.68,15.26-1.77,2.31-.69-.57c-3.32-2.71-4.87-1.66-4.89.92l-.39,20L734,215.48c3.35-1.21,5.58-3.14,1.57-6.42l-.69-.56,1.77-2.31,13.52,11.05-1.77,2.3c-3.5-2.47-5-2.62-9.53-1l-21.72,7.56Z"/><path class="cls-7" d="M774.56,241.79c10.31,11.63,10.55,26.54.48,36.07-9.59,9.07-24.92,9.55-36.72-3.75-11.35-12.8-10-27.74-1-36.3C748,227.72,763.55,229.39,774.56,241.79ZM741.77,273.2c6.86,7.73,16.54,5.24,24-1.8,8.68-8.2,12.82-20.29,5.31-28.75-6.26-7.07-15.64-6.69-23.78,1C737,253.38,734.82,265.35,741.77,273.2Z"/><path class="cls-7" d="M803.89,332c-2.16-3.32-3.85-3.81-6.68-1.94l-9.16,6.08c-4.87-3.23-10.78-8.55-14.18-14-10-16.06-6.14-29.56,5.67-37.38,11.25-7.46,25.51-3.38,33.92,10.14,4.07,6.54,5.07,13,6.42,15.2a2.42,2.42,0,0,0,2,1.38l1,1.58-11.25,7.46L810,317.93c5.2-5.87,5.89-13.14,1.78-19.74-5.6-9-16.36-10.67-26.32-4.07s-13.51,18.2-8,27a16.81,16.81,0,0,0,5.83,5.73l8.48-5.63c3.08-2,2.92-3.82-1-10.37l2.33-1.55,13.11,21.07Z"/><path class="cls-7" d="M809.8,351.2l-9.06.57c-4,.27-5.53,1.05-2.76,7.71l.37.9-2.62,1.16-7.63-18.37,2.62-1.16.43,1c1.38,3.33,3.58,4.4,9,4.06l37-2.34,1.63-1.62L843,353.41l-28.35,29c-3.68,3.76-4.39,5.88-3.16,9.61l-2.62,1.16-9.36-22.54,2.62-1.16,1,2.43c1.75,4.23,3.83,4.05,6.54,1.21l6.43-6.71Zm22.41-1.38L814.07,351l5.08,12.21Z"/><path class="cls-7" d="M153.82,484.29l-12.29.21c-4.71.07-6.35,1-6.28,5.58v-1.29h-2v-18h2v1.48s.31,5.59,4.1,5.52h29.23c3.45-.56,4.43-1.78,4.64-5h1v15h-.8c-.08-3.84-6.7-5-6.7-5l-11.5.2.44,27.8H169s4.87-1.9,5.24-6.19v-.81h2l.27,18-1.21,0c-.19-4-1.36-5.09-5.3-5l-29.24.46c-4.57.07-5.58,1.45-5.52,5.53h-2v-19h2l0,1c.07,4.19,1.65,5.07,5.18,5l13.78-.21Z"/><path class="cls-7" d="M154.41,561l-.2-1.3c4.62-1.31,4.95-2.69,4.52-5.49L157,542.63l-14.1,2.3c-3,.49-3.46,1.75-3.08,4.28l1.61,10.52c.73,4.79,2.73,5.93,8.69,6.71l.19,1.23-10,.51-5.53-36.29,1.26-.2.29,1.91c.84,5.47,2.44,6.19,6.41,5.54l27.94-4.53c3.7-.61,5.15-1.75,4.46-6.33l-.23-1.51,1.26-.2,5,32.81-9.11,2-.19-1.23c5.49-1.8,6.42-3.71,6.05-6.17l-2.2-14.42-16.28,2.65,1.86,12.23c.38,2.46,1.68,3.44,5.57,3.16l.2,1.3Z"/><path class="cls-7" d="M163.31,585.19l-11.19-.84a18.7,18.7,0,0,0-4.42-.12c-1.74.52-1.9,2.44-.88,6.1l.3,1.06-1.22.37-4.31-15.35,1.23-.37c1.27,4.3,2.18,4.82,8.38,5.27l35.38,2.53,1.25-1,1.62,5.78-31.83,24.57c-3,2.34-3.29,3.93-2.36,7.26l-1.22.36-5.12-18.28,1.22-.36.48,1.73c1.07,3.78,1.84,5.06,3.65,4.53a7.57,7.57,0,0,0,2.43-1.52l10.47-8ZM183,586.63l-16.58-1.16,3.22,11.5Z"/><path class="cls-7" d="M168,654.42,156.17,626l1.17-.51.87,2.1c1.21,2.92,2.59,3.6,5.73,2.21l27.29-12c3.27-1.44,4.2-3.06,2.55-7.06l-.37-.9,1.17-.51L202.35,628l-1.17.51-1-2.35c-1.71-4.14-2.59-5-6.41-3.34l-28.4,12.53c-1.67.74-2,1.71-1.23,3.56l3.87,9.35c1.56,3.75,3.45,4.27,10.47,5.91l.47,1.15Z"/><path class="cls-7" d="M186.48,677.12c-3.16,1.82-3.68,3.54-1.7,7.23l1.21,2.24-1.11.64-10.27-19.05,1.11-.64,1.21,2.24c2,3.69,3.69,4.14,6.85,2.32l28.92-16.62L207,645c-1.3-2.42-3.23-2.73-8.87-.68l-.59-1.09,10-4.48.62,1.15a1.06,1.06,0,0,0-.35,1.07,4.52,4.52,0,0,0,.48,1.31L224,671.32c.46.85,1.12,1.65,1.89,1.37l.62,1.15-9,6.42-.58-1.09c4.66-3.87,5.42-5.73,4.12-8.15l-5.67-10.52Z"/><path class="cls-7" d="M216.51,700.07l-10.13,8c-3.47,2.72-4.16,4.4-1.44,8.09l.12.16-1,.8-10.2-13.81,1-.8.24.33c2.4,3.25,4.06,3.68,7.1,1.29l23.45-18.45c2.78-2.18,2.89-3.74.87-6.94l1-.79L237.2,691l-1,.8c-2.88-3.91-4.38-3.77-8.49-.54l-9.27,7.29,15.91,21.58,10.5-8.26c2.83-2.22,3.21-4,.69-7.41l-.77-1.05,1-.79,10.44,14.14-1,.8c-2.54-3.22-4.15-3.34-7.46-.74l-22.12,17.39c-3.78,3-3.82,4.75-1.39,8l.41.55-1,.8L212.13,728l1-.79,1.26,1.7c2.64,3.58,4.43,3.39,7.2,1.21l10.83-8.51Z"/><path class="cls-7" d="M276.92,746.57c4.11-1.18,4-2.94.93-6l.89-.94,10.83,10.93-.89.94c-3.49-3-6.14-3.11-9.69-2.14l-21.12,5.87-7,7.43c-2.48,2.62-2.56,4.58.36,7.53l.63.63-.89.93-13.18-13.29.89-.95.91.92c3,3,4.91,2.73,7.21.31l6.6-7,4.5-22.36c1.25-6.18.81-8-2.21-11.23l.89-.94,12.74,12.87-.89.94c-3.73-3.77-4.86-3.08-5.58.65l-3.91,20Z"/><path class="cls-7" d="M307.79,773.89c2.1-3.29,2.81-5.29-1.11-8l-2-1.33.7-1.1c1.61,1,5.62,3.4,7.28,4.45,3.15,2,7.44,4.8,8.51,5.53,4.92,3.34,8.76,7,9.82,9.89,1.22,3.23,1.09,6-.67,8.74-2.1,3.29-6.69,4.57-10.88,2.72l-.07.11c4.23,5.19,5.06,10.81,2.19,15.32s-10.07,8.89-19.09,2.78L282,799.12l.7-1.1,1.29.88c4.59,3.12,6.19,2.63,8.5-1Zm-9.56,25.47c-2.8,4.4-2.11,7.1,2.59,10.29,7.39,5,12.54,1.72,15.41-2.79s2.44-11.26-4.11-15.71l-6.05-4.1ZM306.77,786l6.1,4.14c5.38,3.65,9.46,3.28,12.34-1.23,2.57-4.05,2.58-9.34-4.31-14-1.23-.84-3.6-2.28-5-3.17Z"/><path class="cls-7" d="M345.39,838.77c-11.89-5.76-18.33-18.49-13-30.21,5.66-12.47,18.95-16.81,31.87-10.56,11.47,5.54,17.64,18.38,12.52,29.66C371,840.32,357.16,844.46,345.39,838.77Zm16.58-40c-10.69-5.17-19.59,3.06-23,10.58-5.31,11.71-1.36,23.71,8.41,28.44s18.72-2,22.76-10.85C375.42,815.32,372,803.64,362,798.8Z"/><path class="cls-7" d="M391.21,818.47c1.21-4.32.41-5.71-3.38-6.85l-1.29-.38.36-1.27c2.41.58,5.6,1.39,9.18,2.32s7.52,2,10.87,3c17,5.08,22,16.24,18.94,27.2-2.81,10-13.72,19.81-30,14.94l-20.6-6.16.36-1.26,1.09.32c3.48,1,5.37.53,6.45-3.33Zm-3,31.37c-.76,2.72-.83,3.71,4.25,5.23,8.63,2.58,12.59,2.4,17.73-.53a21.26,21.26,0,0,0,9.38-12.75c1.38-4.92,1.55-10.77-1.14-15.83-2.1-3.94-6-7.64-15-10.33-2.64-.79-4.43-1.11-5.23-1.28Z"/><path class="cls-7" d="M461.33,834.26c2.67-3.43,1.58-4.79-2.66-5.46l.19-1.29,15,2.34-.19,1.3c-4.56-.36-6.75,1.18-9.08,4.11l-13.82,17.5L449.24,863c-.54,3.62.51,5.26,4.55,5.89l.86.13-.19,1.3-18.22-2.85.19-1.3,1.26.19c4.11.65,5.54-.74,6-4.09l1.42-9.64-9-20.87c-2.47-5.78-3.86-7-8.14-7.78l.19-1.3,17.62,2.76-.19,1.3c-5.17-.81-5.69.44-4.16,3.9l8.11,18.55Z"/><path class="cls-7" d="M549.53,849.47l2.25,12.94c.77,4.42,1.9,5.83,6.32,5l.19,0,.23,1.3L542,871.75l-.23-1.3.39-.07c3.9-.72,5-2.06,4.35-5.94l-5.21-30c-.62-3.54-1.91-4.36-5.59-4l-.23-1.29,15.7-2.91.23,1.29c-4.68.87-5.25,2.32-4.34,7.56L549.1,847l25.86-4.8-2.34-13.41c-.62-3.61-2-4.77-6.07-4l-1.26.24-.22-1.3L582,820.6l.23,1.29c-3.94.87-4.78,2.29-4,6.52l4.92,28.26c.84,4.83,2.35,5.68,6.3,4.94l.66-.12.23,1.3-18.67,3.46-.22-1.3,2-.38c4.29-.79,4.94-2.53,4.33-6.07l-2.41-13.82Z"/><path class="cls-7" d="M621.58,835.92l-1.21.41c-2-4.49-3.37-4.61-6-3.72l-10.76,3.66,4.47,14c1,3,2.24,3.24,4.59,2.44l9.8-3.33c4.46-1.51,5.23-3.75,5-9.94l1.15-.39,2.11,10.14L597,860.69l-.4-1.25,1.78-.61c5.1-1.73,5.53-3.48,4.27-7.42l-8.85-27.74c-1.18-3.67-2.51-5-6.77-3.52l-1.4.48-.4-1.25L615.74,809l3.43,9-1.15.39c-2.61-5.3-4.58-6-6.87-5.17l-13.43,4.57,5.16,16.16L614.27,830c2.29-.78,3-2.26,2.12-6.18l1.21-.41Z"/><path class="cls-7" d="M640.56,824.16l.93,11.54a19.74,19.74,0,0,0,.57,4.54c.77,1.69,2.63,1.56,6,0l1-.47.54,1.19-14,6.76-.54-1.19c3.91-2,4.27-3,3.75-9.37l-3-36.48-1.17-1.12L639.8,797l28.42,28.68c2.72,2.73,4.28,2.75,7.31,1.28l.54,1.2-16.69,8-.54-1.19,1.58-.77c3.46-1.67,4.56-2.66,3.77-4.41a7.75,7.75,0,0,0-1.83-2.25l-9.23-9.45Zm-1.66-20.35,1.44,17.1,10.51-5.07Z"/><path class="cls-7" d="M706.12,808.7l-25.38,16.42-.68-1.12,1.88-1.21c2.61-1.69,3-3.19,1.23-6.19l-15.76-26c-1.89-3.11-3.58-3.81-7.15-1.5l-.8.52-.68-1.12,16.76-10.83.67,1.11-2.1,1.36c-3.69,2.39-4.41,3.42-2.2,7.06l16.4,27c1,1.58,1.94,1.77,3.59.7l8.34-5.4c3.35-2.16,3.56-4.17,4-11.59l1-.66Z"/><path class="cls-7" d="M725,786.3c2.22,2.94,4,3.21,7.18.61l2-1.58.79,1-16.64,13.42-.78-1,1.95-1.57c3.22-2.6,3.39-4.4,1.16-7.35L700.18,762.9,691,770.31c-2.12,1.7-2.12,3.73.72,9.16l-1,.77-5.84-9.52,1-.81a1,1,0,0,0,1.08.19,4.33,4.33,0,0,0,1.18-.69l25.4-20.49c.74-.59,1.41-1.4,1-2.13l1-.82,7.53,8.16-.95.76c-4.43-4.16-6.32-4.64-8.44-2.94l-9.19,7.41Z"/><path class="cls-7" d="M742.28,752.1l9.19,9.1c3.14,3.11,4.86,3.56,8,.22l.14-.15.92.91-11.64,12.53-.92-.91.28-.3c2.74-2.94,2.89-4.71.13-7.44L727.06,745c-2.51-2.49-4-2.36-6.77.2l-.92-.92,11-11.88.92.91c-3.29,3.55-2.93,5.05.79,8.74l8.42,8.34,18.18-19.58-9.53-9.43c-2.56-2.54-4.31-2.65-7.19.44l-.88,1-.92-.91L752.12,709l.92.91c-2.69,3.09-2.56,4.76.44,7.72l20.07,19.88c3.43,3.4,5.13,3.17,7.92.17l.46-.5.92.91-13.13,14.13-.92-.91,1.44-1.55c3-3.24,2.55-5,0-7.53l-9.82-9.72Z"/><path class="cls-7" d="M777.54,683.09c-1.76-4-3.43-3.62-5.91,0l-1-.76,8.77-12.74,1,.76c-2.36,4-2,6.75-.54,10.21l8.91,20.63,8.19,6c2.89,2.13,4.78,1.9,7.14-1.54l.51-.73,1,.76L795,721.18l-1-.76.74-1.07c2.41-3.5,1.85-5.44-.82-7.4l-7.71-5.65-22.09-1.11c-6.11-.32-7.77.41-10.4,4l-1-.76,10.33-15,1,.76c-3,4.4-2.19,5.44,1.49,5.59l19.7.88Z"/><path class="cls-7" d="M838.71,642.94l-39.55,1.9,0,.12,27.07,13.84c3.07,1.56,4.74-.56,6-3.37l1.17.51L828,669.19l-1.18-.51c1.91-4.65,1.15-5.65-4.33-8.42l-23.39-12c-4-2-5.13-2.39-7,1.46l-1.11-.49,3.93-9.62,37.4-1.79-24.85-28.87,3.83-9.37,1.11.49c-1,3.23-1.46,4.47.69,5.25l28.8,10.17c5.83,2.09,6,1.58,7.94-3.07l1.18.51-6.71,16.38-1.17-.51c1.23-3,1.62-6.28-1.75-7.45L813,611.12l-.05.13,26.4,30.22Z"/><path class="cls-7" d="M856.91,588.29l-4.43,16.18-1.22-.36c.93-4.19.14-5.35-4.18-6.62l-27.47-8c-3.48-1-4.8,0-6,3.64l-1.23-.36,4.43-16.17,1.23.35c-1.15,4.2-.65,5.92,3.67,7.19l27.34,8c3.81,1.11,5.39.42,6.65-4.17Z"/><path class="cls-7" d="M867.22,535.37,825.8,564.73l28.37,4.77c4.77.79,5.93-.13,6.84-5.94l1.26.21-2.49,15.85-1.26-.21,0-.28c.67-4.23-.51-5.83-3.55-6.34l-32.54-5.46a10.29,10.29,0,0,0-2.56,5.46l-1.25-.22,1.69-10.72,37.54-26.71-26.33-4.42c-4-.68-4.95.43-5.95,5.87l-1.25-.21,2.51-16,1.26.21c-.81,5.12-.12,6.36,2.46,6.79l36.91,6.2Z"/><path class="cls-7" d="M832.75,513.36c-4.34-.06-5.43,1-5.5,4.6v-.17h-.68c-.1-.86-.18-4.25-.25-8.06s-.08-8,0-11.63c.29-18.26,9.39-26.2,20.44-26,10.12.17,22.12,8.47,21.51,26v21.74l-2,0,0-1c.06-3.33-.91-4.88-4.79-4.94Zm30.73-6c2.75,0,3.69-.15,3.77-5.61.15-9.27-1.07-13.17-5.15-17.53a20.35,20.35,0,0,0-14.38-6c-5-.08-10.48,1.28-14.5,5.29-3.13,3.13-5.55,8-5.7,17.69,0,2.84.13,4.71.18,5.54Z"/><path class="cls-8" d="M850.58,428.47a9.75,9.75,0,1,1-9.73-10.06A9.91,9.91,0,0,1,850.58,428.47Z"/><path class="cls-8" d="M168.63,427.34a9.75,9.75,0,1,1-9.74-10.06A9.91,9.91,0,0,1,168.63,427.34Z"/><path class="cls-8" d="M509.44,851.12a9.75,9.75,0,1,1-9.74-10.06A9.9,9.9,0,0,1,509.44,851.12Z"/><path class="cls-9" d="M500.87,331.57c5.35,6.32,13.72,9.5,17.19,17.75-4.9,8-10.2,15.51-18.34,20.12-5.52-6.13-12.79-10.45-17.18-17.75,4.32-7.72,11-13,16-20Z"/><path class="cls-9" d="M542.12,351c9.64,9.37,17.65,20.42,27.51,29.57-16,13.58-34.13,29.3-60.74,26-24.07-2.95-37.58-23.2-50.42-37.85,15.26,1.94,30.36,14.17,50.42,10.64C525.17,376.53,533.9,362.31,542.12,351Z"/><path class="cls-9" d="M653.27,516.64a124.32,124.32,0,0,1,0,20.12C654,592.63,582,601.22,552.44,561.6c-8.32-11.14-11.12-24.69-14.9-37.86,16.31,9.4,35.41,26.35,60.73,23.66,37.83-4,41.72-44.91,22.91-76.9-6-10.21-17-26-36.66-23.66-34.42,4-26.43,46.31-73.61,58.43,2.47,5.68,6.83,14.51,10.59,24.38,21.39,56.24-13.51,109-66.46,113.58-6.64.28-12.06.75-18.34,0-49.58-7.57-75.43-32.09-91.54-76.29,0-.81-1.27-5.73-1.27-6.53,24.53,17.08,40.61,41.92,82.5,41.42,33.61-.41,65.08-30.39,64.17-63.9-.88-32.29-36.61-36.52-63-23.65-3.74-14.1-5.78-24.83-9.17-39,20.21-3.58,45-14,40.1-39-2.3-11.81-17.31-19.91-35.52-16.57-21.1,3.88-36.3,24.68-48.12,40.24-6.34-11.42-11.75-20.51-18.34-33.14,22.27-38.51,69.75-62.88,112.3-34.31,24,16.11,16.47,60.47,1.14,80.46,9.14,3.77,16.85,10.14,22.92,16.56,40.74-23.92,35.13-98.56,96.26-97C639.56,393.69,652.72,507.46,653.27,516.64Z"/></svg>